<?xml version="1.0" encoding="UTF-8" standalone="no"?>

<svg
   xmlns:rdf="http://www.w3.org/1999/02/22-rdf-syntax-ns#"
   xmlns:svg="http://www.w3.org/2000/svg"
   xmlns="http://www.w3.org/2000/svg"
   width="18.0cm"
   height="15.0cm"
   viewBox="2008 2227 8361 7194"
   id="svg2"
   >

<g
     style="stroke-width:.025in; stroke:black; fill:none"
     id="g4">
<!-- Circle -->    
<circle
       cx="8031"
       cy="4440"
       r="83"
       style="fill:#000000;stroke:#000000;stroke-width:8;"
       id="circle6" />
<!-- Circle -->    
<circle
       cx="8918"
       cy="7396"
       r="89"
       style="fill:#000000;stroke:#000000;stroke-width:8;"
       id="circle8" />
<!-- Ellipse -->    
<ellipse
       transform="translate(5905,4479) rotate(-0.00000000)"
       rx="3086"
       ry="2243"
       style="stroke:#000000;stroke-width:8;"
       id="ellipse10" />
<!-- Ellipse -->    
<ellipse
       transform="translate(6330,5965) rotate(-330.00077168)"
       rx="4290"
       ry="3119"
       style="stroke:#000000;stroke-width:8;"
       id="ellipse12" />
<!-- Circle -->    
<circle
       cx="5285"
       cy="6670"
       r="83"
       style="fill:#000000;stroke:#000000;stroke-width:8;"
       id="circle14" />
<!-- Circle -->    
<circle
       cx="3219"
       cy="7353"
       r="89"
       style="fill:#000000;stroke:#000000;stroke-width:8;"
       id="circle16" />
<!-- Circle -->    
<circle
       cx="3779"
       cy="4440"
       r="94"
       style="fill:#000000;stroke:#000000;stroke-width:8;"
       id="circle18" />
<!-- Line -->    
<polyline
       points="2813,4440 9007,4451 "
       style="stroke:#000000;stroke-width:8; stroke-linejoin:miter; stroke-linecap:butt; fill:#000000; "
       id="polyline20" />
<!-- Line -->    
<polyline
       points="2678,3796 10089,8052 "
       style="stroke:#000000;stroke-width:8; stroke-linejoin:miter; stroke-linecap:butt; stroke-dasharray:50 50; fill:#000000; "
       id="polyline22" />
<!-- Line -->    
<polygon
       points="3788,4445 8254,5928 8450,5753 8632,5529 3788,4445 "
       style="stroke:#000000;stroke-width:8; stroke-linejoin:miter; stroke-linecap:butt; stroke-dasharray:50 50; fill:#cfcfcf; "
       id="polygon24" />
<!-- Line -->    
<polygon
       points="5296,6676 4858,6597 4503,6485 4173,6331 3777,4435 5296,6676 "
       style="stroke:#000000;stroke-width:8; stroke-linejoin:miter; stroke-linecap:butt; stroke-dasharray:50 50; fill:#cfcfcf; "
       id="polygon26" />
<!-- Text -->    
<text
       xml:space="preserve"
       x="7944"
       y="4251"
       stroke="#000000"
       fill="#000000"
       font-family="Arial"
       font-style="normal"
       font-weight="normal"
       font-size="227"
       text-anchor="start"
       id="text28">f2
       </text>
<!-- Text -->    
<text
       xml:space="preserve"
       x="8731"
       y="7818"
       stroke="#000000"
       fill="#000000"
       font-family="Arial"
       font-style="normal"
       font-weight="normal"
       font-size="227"
       text-anchor="start"
       id="text30">f3
       </text>
<!-- Text -->    
<text
       xml:space="preserve"
       x="5739"
       y="4377"
       stroke="#000000"
       fill="#000000"
       font-family="Arial"
       font-style="normal"
       font-weight="normal"
       font-size="227"
       text-anchor="start"
       id="text32">a1
       </text>
<!-- Text -->    
<text
       xml:space="preserve"
       x="7681"
       y="7038"
       stroke="#000000"
       fill="#000000"
       font-family="Arial"
       font-style="normal"
       font-weight="normal"
       font-size="227"
       text-anchor="start"
       id="text34">a2
       </text>
<!-- Text -->    
<text
       xml:space="preserve"
       x="3867"
       y="4256"
       stroke="#000000"
       fill="#000000"
       font-family="Arial"
       font-style="normal"
       font-weight="normal"
       font-size="227"
       text-anchor="start"
       id="text36">f1 (sun)
       </text>
<!-- Line -->    
<polyline
       points="5392,6823 5395,6823 5402,6824 5416,6825 5435,6827 5459,6830 5488,6833 5521,6836 5553,6839 5587,6843 5619,6846 5650,6849 5678,6851 5706,6854 5730,6855 5752,6857 5773,6858 5794,6859 5813,6860 5832,6860 5853,6860 5874,6860 5895,6860 5917,6860 5940,6859 5965,6858 5992,6856 6020,6854 6051,6852 6082,6850 6113,6848 6142,6846 6167,6844 6199,6840 "
       style="stroke:#000000;stroke-width:8; stroke-linejoin:bevel; stroke-linecap:butt; fill:#cfcfcf; "
       id="polyline38" />
<!-- Arrowhead on XXXpoint -->    
<polyline
       points="5964 6917 6179 6843 5954 6807 "
       style="stroke:#000000;stroke-width:8; "
       id="polyline40" />
<!-- Line -->    
<polyline
       points="3204,7574 3206,7577 3212,7584 3222,7594 3235,7609 3252,7629 3272,7651 3293,7674 3314,7698 3335,7721 3355,7742 3374,7763 3392,7782 3407,7800 3423,7816 3439,7833 3455,7848 3469,7863 3484,7878 3499,7892 3513,7907 3530,7923 3548,7940 3567,7958 3588,7976 3610,7997 3634,8020 3660,8044 3687,8069 3714,8093 3739,8116 3762,8138 3782,8156 3806,8178 "
       style="stroke:#000000;stroke-width:8; stroke-linejoin:bevel; stroke-linecap:butt; fill:#cfcfcf; "
       id="polyline42" />
<!-- Arrowhead on XXXpoint -->    
<polyline
       points="3591 8056 3792 8164 3665 7974 "
       style="stroke:#000000;stroke-width:8; "
       id="polyline44" />
<!-- Text -->    
<text
       xml:space="preserve"
       x="7274"
       y="5529"
       stroke="#000000"
       fill="#000000"
       font-family="Arial"
       font-style="normal"
       font-weight="normal"
       font-size="227"
       text-anchor="start"
       id="text46">A2
       </text>
<!-- Text -->    
<text
       xml:space="preserve"
       x="4132"
       y="5878"
       stroke="#000000"
       fill="#000000"
       font-family="Arial"
       font-style="normal"
       font-weight="normal"
       font-size="227"
       text-anchor="start"
       id="text48">A1
       </text>
<!-- Text -->    
<text
       xml:space="preserve"
       x="3009"
       y="7581"
       stroke="#000000"
       fill="#000000"
       font-family="Arial"
       font-style="normal"
       font-weight="normal"
       font-size="227"
       text-anchor="end"
       id="text50">planet 2
	   </text>
<!-- Text -->    
<text
       xml:space="preserve"
       x="5267"
       y="7074"
       stroke="#000000"
       fill="#000000"
       font-family="Arial"
       font-style="normal"
       font-weight="normal"
       font-size="227"
       text-anchor="end"
       id="text52">planet 1
       </text>
  </g>
</svg>
