<?xml version="1.0" encoding="UTF-8" standalone="no"?>
<svg width="1360px" height="700px"
     viewBox="0 0 1360 700" preserveAspectRatio="none"
	 xmlns="http://www.w3.org/2000/svg" version="1.1"
	 xmlns:xlink="http://www.w3.org/1999/xlink">

<path stroke="red" stroke-width="3" fill="none" stroke-linecap="round" stroke-linejoin="round" 
d="
M                100         5
L                105        11
L                110        16
L                115        23
L                120        36
L                125        58
L                130        29
L                135        20
L                140        10
L                145         8
L                150         3
L                155         0
L                160         0
L                165         2
L                170        11
L                175        27
L                180        47
L                185        63
L                190        60
L                195        39
L                200        28
L                205        26
L                210        22
L                215        11
L                220        21
L                225        40
L                230        78
L                235       122
L                240       103
L                245        73
L                250        47
L                255        35
L                260        11
L                265         5
L                270        16
L                275        34
L                280        70
L                285        81
L                290       111
L                295       101
L                300        73
L                305        40
L                310        20
L                315        16
L                320         5
L                325        11
L                330        22
L                335        40
L                340        60
L                345      80.9
L                350      83.4
L                355      47.7
L                360      47.8
L                365      30.7
L                370      12.2
L                375       9.6
L                380      10.2
L                385      32.4
L                390      47.6
L                395        54
L                400      62.9
L                405      85.9
L                410      61.2
L                415      45.1
L                420      36.4
L                425      20.9
L                430      11.4
L                435      37.8
L                440      69.8
L                445     106.1
L                450     100.8
L                455      81.6
L                460      66.5
L                465      34.8
L                470      30.6
L                475         7
L                480      19.8
L                485      92.5
L                490     154.4
L                495     125.9
L                500      84.8
L                505      68.1
L                510      38.5
L                515      22.8
L                520      10.2
L                525      24.1
L                530      82.9
L                535       132
L                540     130.9
L                545     118.1
L                550      89.9
L                555      66.6
L                560        60
L                565      46.9
L                570        41
L                575      21.3
L                580        16
L                585       6.4
L                590       4.1
L                595       6.8
L                600      14.5
L                605        34
L                610        45
L                615      43.1
L                620      47.5
L                625      42.2
L                630      28.1
L                635      10.1
L                640       8.1
L                645       2.5
L                650         0
L                655       1.4
L                660         5
L                665      12.2
L                670      13.9
L                675      35.4
L                680      45.8
L                685        41
L                690      30.1
L                695      23.9
L                700      15.6
L                705       6.6
L                710         4
L                715       1.8
L                720       8.5
L                725      16.6
L                730      36.3
L                735      49.6
L                740      64.2
L                745        67
L                750      70.9
L                755      47.8
L                760      27.5
L                765       8.5
L                770      13.2
L                775      56.9
L                780     121.5
L                785     138.3
L                790     103.2
L                795      85.7
L                800      64.6
L                805      36.7
L                810      24.2
L                815      10.7
L                820        15
L                825      40.1
L                830      61.5
L                835      98.5
L                840     124.7
L                845      96.1
L                850      66.5
L                855      64.2
L                860      54.1
L                865        39
L                870      20.5
L                875       6.7
L                880       4.3
L                885      22.8
L                890        55
L                895      93.9
L                900      95.9
L                905      77.2
L                910        59
L                915        44
L                920        47
L                925      30.4
L                930      16.2
L                935       7.3
L                940      37.6
L                945      74.1
L                950     139.1
L                955     111.1
L                960     101.4
L                965        66
L                970      44.6
L                975        17
L                980      11.3
L                985      12.4
L                990       3.4
L                995         6
L               1000      32.2
L               1005      54.3
L               1010      59.4
L               1015      63.7
L               1020      63.5
L               1025      51.8
L               1030      25.5
L               1035      13.1
L               1040       6.7
L               1045       6.2
L               1050       7.1
L               1055      35.7
L               1060        73
L               1065      85.2
L               1070        78
L               1075      63.9
L               1080      41.7
L               1085      26.2
L               1090      26.7
L               1095      12.1
L               1100       9.4
L               1105       2.7
L               1110       5.1
L               1115      24.4
L               1120      42.1
L               1125      63.3
L               1130      54.1
L               1135      61.7
L               1140      48.5
L               1145      43.9
L               1150      18.5
L               1155       5.7
L               1160       3.6
L               1165       1.4
L               1170       9.6
L               1175      47.4
L               1180        57
L               1185     104.2
L               1190      80.8
L               1195      63.5
L               1200      37.6
L               1205      26.1
L               1210      14.2
L               1215       5.8
L               1220      16.7
L               1225      44.4
L               1230      63.9
L               1235      68.8
L               1240      77.8
L               1245      64.9
L               1250      35.6
L               1255      21.1
L               1260      11.1
L               1265       5.5
L               1270       8.7
L               1275      36.1
L               1280      79.7
L               1285     114.4
L               1290     109.6
L               1295      88.8
L               1300      67.8
L               1305      47.5
L               1310      30.4
L               1315      16.3
L               1320       9.7
L               1325      33.2
L               1330      92.6
L               1335     151.6
L               1340     136.3
L               1345     134.7
L               1350      83.9
L               1355      69.4
L               1360      31.5
L               1365      13.9
L               1370       4.4
L               1375        38
L               1380     141.7
L               1385     190.2
L               1390     184.8
L               1395       159
L               1400     112.3
L               1405      53.9
L               1410      37.5
L               1415      27.9
L               1420      10.2
L               1425      15.1
L               1430        47
L               1435      93.8
L               1440     105.9
L               1445     105.5
L               1450     104.5
L               1455      66.6
L               1460      68.9
L               1465        38
L               1470      34.5
L               1475      15.5
L               1480      12.6
L               1485      27.5
L               1490      92.5
L               1495     155.4
L               1500     154.6
L               1505     140.5
L               1510     115.9
L               1515      66.8
L               1520      45.7
L               1525        18
L               1530      13.4
L               1535      29.4
L               1540     100.2
L               1545     157.6
L               1550     142.6
L               1555     145.7
L               1560      94.3
L               1565      54.6
L               1570      29.9
L               1575      17.5
L               1580       8.6
L               1585      21.5
L               1590      64.3
L               1595      93.3
L               1600     119.6
L               1605       111
L               1610       104
L               1615      63.7
L               1620      40.4
L               1625      29.8
L               1630      15.2
L               1635       7.5
L               1640       2.9
L               1645       3.1
L               1650      16.5
L               1655      55.7
L               1660      57.7
L               1665      64.9
L               1670        79
" />
    
<rect x="100" y="10" width="1200" height="600" fill="none" stroke="black" stroke-width="1" />     
<g stroke = "black" stroke-width = "1">
<line x1 = "300" y1 = "10" x2 = "300" y2 = "610" />
<line x1 = "500" y1 = "10" x2 = "500" y2 = "610" />
<line x1 = "700" y1 = "10" x2 = "700" y2 = "610" />
<line x1 = "900" y1 = "10" x2 = "900" y2 = "610" />
<line x1 = "1100" y1 = "10" x2 = "1100" y2 = "610" />

<line x1 = "100" y1 = "110" x2 = "1300" y2 = "110" />
<line x1 = "100" y1 = "210" x2 = "1300" y2 = "210" />
<line x1 = "100" y1 = "310" x2 = "1300" y2 = "310" />
<line x1 = "100" y1 = "410" x2 = "1300" y2 = "410" />
<line x1 = "100" y1 = "510" x2 = "1300" y2 = "510" />
<line x1 = "100" y1 = "610" x2 = "1300" y2 = "610" />
</g>

<g fill="black" font-size="24" font-family="sans-serif">
<text x="48" y="650">1700</text>
<text x="254" y="650"></text>
<text x="454" y="650">1800</text>
<text x="654" y="650"></text>
<text x="854" y="650">1900</text>
<text x="1072" y="650"></text>
<text x="1254" y="650">2000</text>

<text x="70" y="620">0</text>
<text x="56" y="520">20</text>
<text x="56" y="420">40</text>
<text x="56" y="320">60</text>
<text x="56" y="220">80</text>
<text x="42" y="120">100</text>

<text x="50" y="40">SN</text>
</g>

</svg>
