<?xml version="1.0" encoding="UTF-8" standalone="no"?>
<svg width="1360px" height="700px"
     viewBox="0 0 1360 700" preserveAspectRatio="none"
	 xmlns="http://www.w3.org/2000/svg" version="1.1"
	 xmlns:xlink="http://www.w3.org/1999/xlink">

<path stroke="red" stroke-width="3" fill="none" stroke-linecap="round" stroke-linejoin="round" 
d="
M                100      610
L                200      510
L                300      510
L                400      410
L                500      510
L                600      460
L                700      310
L                800      410
L                900      210 
L               1000      75  
L               1300      110
" />
    
<rect x="100" y="10" width="1200" height="600" fill="none" stroke="black" stroke-width="1" />     
<g stroke = "black" stroke-width = "1">
<line x1 = "300" y1 = "10" x2 = "300" y2 = "610" />
<line x1 = "500" y1 = "10" x2 = "500" y2 = "610" />
<line x1 = "700" y1 = "10" x2 = "700" y2 = "610" />
<line x1 = "900" y1 = "10" x2 = "900" y2 = "610" />
<line x1 = "1100" y1 = "10" x2 = "1100" y2 = "610" />

<line x1 = "100" y1 = "110" x2 = "1300" y2 = "110" />
<line x1 = "100" y1 = "210" x2 = "1300" y2 = "210" />
<line x1 = "100" y1 = "310" x2 = "1300" y2 = "310" />
<line x1 = "100" y1 = "410" x2 = "1300" y2 = "410" />
<line x1 = "100" y1 = "510" x2 = "1300" y2 = "510" />
<line x1 = "100" y1 = "610" x2 = "1300" y2 = "610" />
</g>

<g fill="black" font-size="24" font-family="sans-serif">

<text x="48" y="650">1700</text>
<text x="254" y="650"></text>
<text x="454" y="650">1800</text>
<text x="654" y="650"></text>
<text x="854" y="650">1900</text>
<text x="1072" y="650"></text>
<text x="1254" y="650">2000</text>

<text x="70" y="620">0</text>
<text x="56" y="520">20</text>
<text x="56" y="420">40</text>
<text x="56" y="320">60</text>
<text x="56" y="220">80</text>
<text x="42" y="120">100</text>

<text x="50" y="680">Example SVG plot - svg file can be edited manually</text>
</g>

</svg>
